<svg width="17" height="17" viewBox="0 0 17 17" fill="none" xmlns="http://www.w3.org/2000/svg">
<path fill-rule="evenodd" clip-rule="evenodd" d="M10.936 9.92531C12.6844 7.47199 12.1263 4.04096 9.92531 1.83994C7.47205 -0.613314 4.2932 -0.613314 1.83994 1.83994C-0.613314 4.2932 -0.613314 7.47205 1.83994 9.92531C4.04096 12.1263 7.47199 12.6844 9.92531 10.936L15.9893 17L17 15.9893L10.936 9.92531ZM8.91464 2.85061C10.5501 4.48612 10.5501 7.27913 8.91464 8.91464C7.27913 10.5501 4.48612 10.5501 2.85061 8.91464C1.21511 7.27913 1.21511 4.48612 2.85061 2.85061C4.48612 1.21511 7.27913 1.21511 8.91464 2.85061Z" fill="#ADB8C8"/>
</svg>
